<svg aria-hidden="true" style="position: absolute; width: 0; height: 0; overflow: hidden;" version="1.1" xmlns="http://www.w3.org/2000/svg" xmlns:xlink="http://www.w3.org/1999/xlink">
<defs>
<symbol id="icon-Logo" viewBox="0 0 35 32">
<path fill="#02bc6b" style="fill: var(--color1, #02bc6b)" d="M2.71 29.802c-1.49 0-2.71-1.219-2.71-2.71v-9.473h6.821v-0.011h4.099c1.057-0.027 1.951-0.948 1.951-2.032 0-1.111-0.921-2.032-2.032-2.032l-10.839 0.002v-2.711c0-1.49 1.219-2.71 2.71-2.71h8.129c2.059 0 3.821 0.732 5.257 2.195 1.463 1.436 2.195 3.197 2.195 5.257 0 2.032-0.705 3.794-2.141 5.23s-3.17 2.195-5.203 2.222h-5.528v4.065c0 1.49-1.219 2.71-2.71 2.71z"></path>
<path fill="#02897a" style="fill: var(--color2, #02897a)" d="M21.706 4.98c2.994 2.908 4.502 6.529 4.502 10.646 0 4.048-1.445 7.666-4.393 10.583l-4.185-3.937c1.833-1.814 2.733-3.998 2.733-6.645 0-2.667-0.927-4.848-2.804-6.671l4.146-3.975z"></path>
<path fill="#035b81" style="fill: var(--color3, #035b81)" d="M28.113 0c4.312 4.305 6.482 9.643 6.482 15.77 0 6.031-2.082 11.366-6.323 15.68l-4.039-3.946c3.159-3.214 4.707-7.112 4.707-11.734 0-4.669-1.6-8.563-4.828-11.786l4.002-3.984z"></path>
<path fill="#028e37" style="fill: var(--color4, #028e37)" d="M0 23.051h5.419v4.042c0 1.49-1.219 2.71-2.71 2.71s-2.71-1.219-2.71-2.71v-4.042z"></path>
</symbol>
<symbol id="icon-menu" viewBox="0 0 29 32">
<path fill="none" stroke="#173a56" style="stroke: var(--color5, #173a56)" stroke-linejoin="round" stroke-linecap="round" stroke-miterlimit="4" stroke-width="3.0968" d="M3.613 16h21.677"></path>
<path fill="none" stroke="#173a56" style="stroke: var(--color5, #173a56)" stroke-linejoin="round" stroke-linecap="round" stroke-miterlimit="4" stroke-width="3.0968" d="M3.613 8h21.677"></path>
<path fill="none" stroke="#173a56" style="stroke: var(--color5, #173a56)" stroke-linejoin="round" stroke-linecap="round" stroke-miterlimit="4" stroke-width="3.0968" d="M3.613 24h21.677"></path>
</symbol>
<symbol id="icon-work-play" viewBox="0 0 29 32">
<path fill="#02897a" style="fill: var(--color2, #02897a)" d="M27.343 14.302c1.269 0.728 1.269 2.558 0 3.287l-23.642 13.57c-1.263 0.725-2.838-0.187-2.838-1.643v-27.14c0-1.456 1.575-2.368 2.838-1.643l23.642 13.57z"></path>
</symbol>
<symbol id="icon-icon-1" viewBox="0 0 32 32">
<path fill="#02897a" style="fill: var(--color1, #02897a)" d="M11.922 0.607h7.529c6.584 0 11.922 5.337 11.922 11.922v7.529c0 6.584-5.337 11.922-11.922 11.922h-7.529c-6.584 0-11.922-5.337-11.922-11.922v-7.529c0-6.584 5.337-11.922 11.922-11.922z"></path>
<path fill="#fff" style="fill: var(--color2, #fff)" d="M18.269 17.296l-5.737-5.737c-0.067-0.073-0.157-0.106-0.252-0.106-0.045 0-0.095 0.011-0.134 0.028-0.134 0.056-0.224 0.185-0.224 0.331v8.426c0 0.146 0.090 0.274 0.224 0.331 0.039 0.017 0.090 0.028 0.134 0.028 0.095 0 0.185-0.039 0.252-0.106l1.748-1.748 1.070 2.532c0.078 0.179 0.286 0.269 0.471 0.19l0.992-0.42c0.179-0.078 0.269-0.286 0.191-0.471l-1.126-2.667h2.14c0.146 0 0.274-0.090 0.331-0.224 0.056-0.129 0.028-0.286-0.078-0.387z"></path>
</symbol>
<symbol id="icon-icon-2" viewBox="0 0 31 32">
<path fill="#4d8dff" style="fill: var(--color3, #4d8dff)" d="M11.922 0.607h7.529c6.584 0 11.922 5.337 11.922 11.922v7.529c0 6.584-5.337 11.922-11.922 11.922h-7.529c-6.584 0-11.922-5.337-11.922-11.922v-7.529c0-6.584 5.337-11.922 11.922-11.922z"></path>
<path fill="#fff" style="fill: var(--color2, #fff)" d="M15.989 16.069l0.734 0.342 1.092-0.325v-0.762c0-1.294-1.092-2.331-2.398-2.331-1.3 0-2.398 1.031-2.398 2.314v3.473c0 0.319-0.258 0.571-0.571 0.571s-0.571-0.252-0.571-0.571v-1.468h-1.838c0 1.473 0 1.49 0 1.49 0 1.328 1.076 2.403 2.403 2.403 1.317 0 2.403-1.059 2.403-2.37v-3.429c0-0.314 0.258-0.571 0.571-0.571s0.571 0.258 0.571 0.571v0.661zM18.958 17.313v1.541c0 0.314-0.258 0.566-0.571 0.566s-0.571-0.252-0.571-0.566v-1.513l-1.092 0.325-0.734-0.342v1.501c0 1.317 1.081 2.381 2.403 2.381 1.328 0 2.403-1.076 2.403-2.403 0 0 0-0.017 0-1.49h-1.838z"></path>
</symbol>
<symbol id="icon-icon-3" viewBox="0 0 31 32">
<path fill="#740a76" style="fill: var(--color4, #740a76)" d="M11.922 0.607h7.529c6.584 0 11.922 5.337 11.922 11.922v7.529c0 6.584-5.337 11.922-11.922 11.922h-7.529c-6.584 0-11.922-5.337-11.922-11.922v-7.529c0-6.584 5.337-11.922 11.922-11.922z"></path>
<path fill="#fff" style="fill: var(--color2, #fff)" d="M15.686 21.403c0.090 0 0.179-0.034 0.247-0.101l3.49-3.361c0.050-0.050 1.283-1.176 1.283-2.521 0-1.641-1.003-2.622-2.678-2.622-0.98 0-1.899 0.773-2.342 1.21-0.443-0.437-1.361-1.21-2.342-1.21-1.675 0-2.678 0.98-2.678 2.622 0 1.345 1.232 2.471 1.277 2.51l3.496 3.373c0.067 0.067 0.157 0.101 0.247 0.101z"></path>
</symbol>
<symbol id="icon-icon-4" viewBox="0 0 31 32">
<path fill="#f03e3d" style="fill: var(--color5, #f03e3d)" d="M11.922 0.607h7.529c6.584 0 11.922 5.337 11.922 11.922v7.529c0 6.584-5.337 11.922-11.922 11.922h-7.529c-6.584 0-11.922-5.337-11.922-11.922v-7.529c0-6.584 5.337-11.922 11.922-11.922z"></path>
<path fill="#fff" style="fill: var(--color2, #fff)" d="M19.182 12.798h0.538c0.101 0 0.179-0.078 0.179-0.179v-0.359c0-0.101-0.078-0.179-0.179-0.179h-8.247c-0.101 0-0.179 0.078-0.179 0.179v0.359c0 0.101 0.078 0.179 0.179 0.179h0.538c0 2.073 0.992 3.574 2.090 4.303-1.098 0.728-2.090 2.23-2.090 4.302h-0.538c-0.101 0-0.179 0.078-0.179 0.179v0.359c0 0.101 0.078 0.179 0.179 0.179h8.247c0.101 0 0.179-0.078 0.179-0.179v-0.359c0-0.101-0.078-0.179-0.179-0.179h-0.538c0-2.073-0.992-3.574-2.090-4.303 1.098-0.728 2.090-2.23 2.090-4.303zM18.465 12.798c0 0.818-0.185 1.541-0.476 2.151h-4.784c-0.291-0.611-0.476-1.333-0.476-2.151h5.737zM18.146 19.61h-5.098c0.415-1.081 1.16-1.849 1.905-2.151h1.288c0.745 0.303 1.49 1.070 1.905 2.151z"></path>
</symbol>
</defs>
</svg>
