<svg aria-hidden="true" style="position: absolute; width: 0; height: 0; overflow: hidden;" version="1.1" xmlns="http://www.w3.org/2000/svg" xmlns:xlink="http://www.w3.org/1999/xlink">
<defs>
<symbol id="icon-play" viewBox="0 0 29 32">
<path fill="#02897a" style="fill: var(--color1, #02897a)" d="M27.343 14.302c1.269 0.728 1.269 2.558 0 3.287l-23.642 13.57c-1.263 0.725-2.838-0.187-2.838-1.643v-27.14c0-1.456 1.575-2.368 2.838-1.643l23.642 13.57z"></path>
</symbol>
<symbol id="icon-menu" viewBox="0 0 29 32">
<path fill="none" stroke="#173a56" style="stroke: var(--color1, #173a56)" stroke-linejoin="round" stroke-linecap="round" stroke-miterlimit="4" stroke-width="3.0968" d="M3.613 16h21.677"></path>
<path fill="none" stroke="#173a56" style="stroke: var(--color1, #173a56)" stroke-linejoin="round" stroke-linecap="round" stroke-miterlimit="4" stroke-width="3.0968" d="M3.613 8h21.677"></path>
<path fill="none" stroke="#173a56" style="stroke: var(--color1, #173a56)" stroke-linejoin="round" stroke-linecap="round" stroke-miterlimit="4" stroke-width="3.0968" d="M3.613 24h21.677"></path>
</symbol>
<symbol id="icon-Group-190" viewBox="0 0 32 32">
<path fill="#02bc6b" style="fill: var(--color1, #02bc6b)" d="M2.506 28.767c-1.379 0-2.506-1.128-2.506-2.506v-8.763h6.309v-0.010h3.792c0.978-0.025 1.805-0.877 1.805-1.88 0-1.028-0.852-1.88-1.88-1.88l-10.026 0.002v-2.508c0-1.379 1.128-2.506 2.506-2.506h7.519c1.905 0 3.534 0.677 4.862 2.030 1.354 1.328 2.030 2.958 2.030 4.862 0 1.88-0.652 3.509-1.98 4.838s-2.933 2.030-4.812 2.055h-5.113v3.76c0 1.379-1.128 2.506-2.506 2.506z"></path>
<path fill="#02897a" style="fill: var(--color2, #02897a)" d="M20.078 5.806c2.769 2.69 4.165 6.040 4.165 9.848 0 3.744-1.337 7.091-4.063 9.789l-3.871-3.642c1.696-1.678 2.528-3.698 2.528-6.147 0-2.467-0.857-4.484-2.594-6.171l3.836-3.677z"></path>
<path fill="#035b81" style="fill: var(--color3, #035b81)" d="M26.005 1.2c3.989 3.982 5.996 8.92 5.996 14.587 0 5.579-1.926 10.513-5.849 14.504l-3.736-3.65c2.922-2.973 4.354-6.578 4.354-10.854 0-4.318-1.48-7.921-4.466-10.902l3.701-3.685z"></path>
<path fill="#028e37" style="fill: var(--color4, #028e37)" d="M0 22.522h5.013v3.739c0 1.379-1.128 2.506-2.506 2.506s-2.506-1.128-2.506-2.506v-3.739z"></path>
</symbol>
<symbol id="icon-icon-1" viewBox="0 0 32 32">
<path fill="#02897a" style="fill: var(--color2, #02897a)" d="M11.922 0.607h7.529c6.584 0 11.922 5.337 11.922 11.922v7.529c0 6.584-5.337 11.922-11.922 11.922h-7.529c-6.584 0-11.922-5.337-11.922-11.922v-7.529c0-6.584 5.337-11.922 11.922-11.922z"></path>
<path fill="#fff" style="fill: var(--color5, #fff)" d="M18.269 17.296l-5.737-5.737c-0.067-0.073-0.157-0.106-0.252-0.106-0.045 0-0.095 0.011-0.134 0.028-0.134 0.056-0.224 0.185-0.224 0.331v8.426c0 0.146 0.090 0.274 0.224 0.331 0.039 0.017 0.090 0.028 0.134 0.028 0.095 0 0.185-0.039 0.252-0.106l1.748-1.748 1.070 2.532c0.078 0.179 0.286 0.269 0.471 0.19l0.992-0.42c0.179-0.078 0.269-0.286 0.191-0.471l-1.126-2.667h2.14c0.146 0 0.274-0.090 0.331-0.224 0.056-0.129 0.028-0.286-0.078-0.387z"></path>
</symbol>
<symbol id="icon-icon-2" viewBox="0 0 31 32">
<path fill="#4d8dff" style="fill: var(--color6, #4d8dff)" d="M11.922 0.607h7.529c6.584 0 11.922 5.337 11.922 11.922v7.529c0 6.584-5.337 11.922-11.922 11.922h-7.529c-6.584 0-11.922-5.337-11.922-11.922v-7.529c0-6.584 5.337-11.922 11.922-11.922z"></path>
<path fill="#fff" style="fill: var(--color5, #fff)" d="M15.989 16.069l0.734 0.342 1.092-0.325v-0.762c0-1.294-1.092-2.331-2.398-2.331-1.3 0-2.398 1.031-2.398 2.314v3.473c0 0.319-0.258 0.571-0.571 0.571s-0.571-0.252-0.571-0.571v-1.468h-1.838c0 1.473 0 1.49 0 1.49 0 1.328 1.076 2.403 2.403 2.403 1.317 0 2.403-1.059 2.403-2.37v-3.429c0-0.314 0.258-0.571 0.571-0.571s0.571 0.258 0.571 0.571v0.661zM18.958 17.313v1.541c0 0.314-0.258 0.566-0.571 0.566s-0.571-0.252-0.571-0.566v-1.513l-1.092 0.325-0.734-0.342v1.501c0 1.317 1.081 2.381 2.403 2.381 1.328 0 2.403-1.076 2.403-2.403 0 0 0-0.017 0-1.49h-1.838z"></path>
</symbol>
<symbol id="icon-icon-3" viewBox="0 0 31 32">
<path fill="#740a76" style="fill: var(--color7, #740a76)" d="M11.922 0.607h7.529c6.584 0 11.922 5.337 11.922 11.922v7.529c0 6.584-5.337 11.922-11.922 11.922h-7.529c-6.584 0-11.922-5.337-11.922-11.922v-7.529c0-6.584 5.337-11.922 11.922-11.922z"></path>
<path fill="#fff" style="fill: var(--color5, #fff)" d="M15.686 21.403c0.090 0 0.179-0.034 0.247-0.101l3.49-3.361c0.050-0.050 1.283-1.176 1.283-2.521 0-1.641-1.003-2.622-2.678-2.622-0.98 0-1.899 0.773-2.342 1.21-0.443-0.437-1.361-1.21-2.342-1.21-1.675 0-2.678 0.98-2.678 2.622 0 1.345 1.232 2.471 1.277 2.51l3.496 3.373c0.067 0.067 0.157 0.101 0.247 0.101z"></path>
</symbol>
<symbol id="icon-icon-4" viewBox="0 0 31 32">
<path fill="#f03e3d" style="fill: var(--color8, #f03e3d)" d="M11.922 0.607h7.529c6.584 0 11.922 5.337 11.922 11.922v7.529c0 6.584-5.337 11.922-11.922 11.922h-7.529c-6.584 0-11.922-5.337-11.922-11.922v-7.529c0-6.584 5.337-11.922 11.922-11.922z"></path>
<path fill="#fff" style="fill: var(--color5, #fff)" d="M19.182 12.798h0.538c0.101 0 0.179-0.078 0.179-0.179v-0.359c0-0.101-0.078-0.179-0.179-0.179h-8.247c-0.101 0-0.179 0.078-0.179 0.179v0.359c0 0.101 0.078 0.179 0.179 0.179h0.538c0 2.073 0.992 3.574 2.090 4.303-1.098 0.728-2.090 2.23-2.090 4.302h-0.538c-0.101 0-0.179 0.078-0.179 0.179v0.359c0 0.101 0.078 0.179 0.179 0.179h8.247c0.101 0 0.179-0.078 0.179-0.179v-0.359c0-0.101-0.078-0.179-0.179-0.179h-0.538c0-2.073-0.992-3.574-2.090-4.303 1.098-0.728 2.090-2.23 2.090-4.303zM18.465 12.798c0 0.818-0.185 1.541-0.476 2.151h-4.784c-0.291-0.611-0.476-1.333-0.476-2.151h5.737zM18.146 19.61h-5.098c0.415-1.081 1.16-1.849 1.905-2.151h1.288c0.745 0.303 1.49 1.070 1.905 2.151z"></path>
</symbol>
<symbol id="icon-twiter" viewBox="0 0 38 32">
<path fill="none" stroke="#02897a" style="stroke: var(--color1, #02897a)" stroke-linejoin="round" stroke-linecap="round" stroke-miterlimit="4" stroke-width="3.2" d="M36.8 1.616c-1.532 1.081-3.229 1.907-5.024 2.448-0.964-1.108-2.244-1.893-3.669-2.25s-2.924-0.267-4.296 0.257c-1.372 0.524-2.55 1.456-3.375 2.671s-1.256 2.654-1.237 4.122v1.6c-2.812 0.073-5.598-0.551-8.11-1.815s-4.673-3.131-6.29-5.433c0 0-6.4 14.4 8 20.8-3.295 2.237-7.221 3.358-11.2 3.2 14.4 8 32 0 32-18.4-0.001-0.446-0.044-0.89-0.128-1.328 1.633-1.61 2.785-3.644 3.328-5.872v0z"></path>
</symbol>
<symbol id="icon-facebook" viewBox="0 0 19 32">
<path fill="none" stroke="#02897a" style="stroke: var(--color1, #02897a)" stroke-linejoin="round" stroke-linecap="round" stroke-miterlimit="4" stroke-width="2.9091" d="M17.455 1.455h-4.364c-1.929 0-3.779 0.766-5.143 2.13s-2.13 3.214-2.13 5.143v4.364h-4.364v5.818h4.364v11.636h5.818v-11.636h4.364l1.455-5.818h-5.818v-4.364c0-0.386 0.153-0.756 0.426-1.029s0.643-0.426 1.029-0.426h4.364v-5.818z"></path>
</symbol>
<symbol id="icon-icons-blue" viewBox="0 0 31 32">
<path fill="#4d8dff" style="fill: var(--color6, #4d8dff)" d="M12.315 1.82h6.482c6.085 0 11.018 4.933 11.018 11.018v6.481c0 6.085-4.933 11.018-11.018 11.018h-6.482c-6.085 0-11.018-4.933-11.018-11.018v-6.482c0-6.085 4.933-11.018 11.018-11.018z"></path>
<path fill="none" stroke="#fff" style="stroke: var(--color5, #fff)" stroke-linejoin="miter" stroke-linecap="butt" stroke-miterlimit="4" stroke-width="2.5926" d="M12.315 1.82h6.482c6.085 0 11.018 4.933 11.018 11.018v6.481c0 6.085-4.933 11.018-11.018 11.018h-6.482c-6.085 0-11.018-4.933-11.018-11.018v-6.482c0-6.085 4.933-11.018 11.018-11.018z"></path>
<path fill="none" stroke="#4d8dff" style="stroke: var(--color6, #4d8dff)" stroke-linejoin="miter" stroke-linecap="butt" stroke-miterlimit="4" stroke-width="2.5926" d="M12.315 1.82h6.482c6.085 0 11.018 4.933 11.018 11.018v6.481c0 6.085-4.933 11.018-11.018 11.018h-6.482c-6.085 0-11.018-4.933-11.018-11.018v-6.482c0-6.085 4.933-11.018 11.018-11.018z"></path>
<path fill="#fff" style="fill: var(--color5, #fff)" d="M22.903 11.403c-0.278-0.284-0.728-0.284-1.006 0l-8.52 8.701-3.275-3.344c-0.278-0.284-0.728-0.284-1.006 0s-0.278 0.743 0 1.027l3.778 3.858c0.278 0.284 0.728 0.283 1.006 0l9.022-9.214c0.278-0.284 0.278-0.743 0-1.027z"></path>
</symbol>
<symbol id="icon-icons-red" viewBox="0 0 31 32">
<path fill="#f03e3d" style="fill: var(--color8, #f03e3d)" d="M12.315 1.82h6.482c6.085 0 11.018 4.933 11.018 11.018v6.481c0 6.085-4.933 11.018-11.018 11.018h-6.482c-6.085 0-11.018-4.933-11.018-11.018v-6.482c0-6.085 4.933-11.018 11.018-11.018z"></path>
<path fill="none" stroke="#fff" style="stroke: var(--color5, #fff)" stroke-linejoin="miter" stroke-linecap="butt" stroke-miterlimit="4" stroke-width="2.5926" d="M12.315 1.82h6.482c6.085 0 11.018 4.933 11.018 11.018v6.481c0 6.085-4.933 11.018-11.018 11.018h-6.482c-6.085 0-11.018-4.933-11.018-11.018v-6.482c0-6.085 4.933-11.018 11.018-11.018z"></path>
<path fill="none" stroke="#f03e3d" style="stroke: var(--color8, #f03e3d)" stroke-linejoin="miter" stroke-linecap="butt" stroke-miterlimit="4" stroke-width="2.5926" d="M12.315 1.82h6.482c6.085 0 11.018 4.933 11.018 11.018v6.481c0 6.085-4.933 11.018-11.018 11.018h-6.482c-6.085 0-11.018-4.933-11.018-11.018v-6.482c0-6.085 4.933-11.018 11.018-11.018z"></path>
<path fill="#fff" style="fill: var(--color5, #fff)" d="M22.903 11.403c-0.278-0.284-0.728-0.284-1.006 0l-8.52 8.701-3.275-3.344c-0.278-0.284-0.728-0.284-1.006 0s-0.278 0.743 0 1.027l3.778 3.858c0.278 0.284 0.728 0.283 1.006 0l9.022-9.214c0.278-0.284 0.278-0.743 0-1.027z"></path>
</symbol>
<symbol id="icon-icons-yellow" viewBox="0 0 31 32">
<path fill="#f90" style="fill: var(--color9, #f90)" d="M12.315 1.612h6.482c6.085 0 11.018 4.933 11.018 11.018v6.482c0 6.085-4.933 11.018-11.018 11.018h-6.482c-6.085 0-11.018-4.933-11.018-11.018v-6.482c0-6.085 4.933-11.018 11.018-11.018z"></path>
<path fill="none" stroke="#fff" style="stroke: var(--color5, #fff)" stroke-linejoin="miter" stroke-linecap="butt" stroke-miterlimit="4" stroke-width="2.5926" d="M12.315 1.612h6.482c6.085 0 11.018 4.933 11.018 11.018v6.482c0 6.085-4.933 11.018-11.018 11.018h-6.482c-6.085 0-11.018-4.933-11.018-11.018v-6.482c0-6.085 4.933-11.018 11.018-11.018z"></path>
<path fill="none" stroke="#f90" style="stroke: var(--color9, #f90)" stroke-linejoin="miter" stroke-linecap="butt" stroke-miterlimit="4" stroke-width="2.5926" d="M12.315 1.612h6.482c6.085 0 11.018 4.933 11.018 11.018v6.482c0 6.085-4.933 11.018-11.018 11.018h-6.482c-6.085 0-11.018-4.933-11.018-11.018v-6.482c0-6.085 4.933-11.018 11.018-11.018z"></path>
<path fill="#fff" style="fill: var(--color5, #fff)" d="M22.903 11.195c-0.278-0.284-0.728-0.284-1.006 0l-8.52 8.701-3.275-3.344c-0.278-0.284-0.728-0.284-1.006 0s-0.278 0.743 0 1.027l3.778 3.858c0.278 0.284 0.728 0.283 1.006 0l9.022-9.214c0.278-0.284 0.278-0.743 0-1.027z"></path>
</symbol>
<symbol id="icon-instagram" viewBox="0 0 31 32">
<path fill="none" stroke="#02897a" style="stroke: var(--color1, #02897a)" stroke-linejoin="round" stroke-linecap="round" stroke-miterlimit="4" stroke-width="2.56" d="M21.76 2.58h-12.8c-3.535 0-6.4 2.865-6.4 6.4v12.8c0 3.535 2.865 6.4 6.4 6.4h12.8c3.535 0 6.4-2.865 6.4-6.4v-12.8c0-3.535-2.865-6.4-6.4-6.4z"></path>
<path fill="none" stroke="#02897a" style="stroke: var(--color1, #02897a)" stroke-linejoin="round" stroke-linecap="round" stroke-miterlimit="4" stroke-width="2.56" d="M20.48 14.574c0.158 1.065-0.024 2.153-0.52 3.109s-1.281 1.731-2.243 2.215c-0.962 0.484-2.052 0.653-3.115 0.482s-2.046-0.673-2.807-1.435-1.264-1.744-1.435-2.807c-0.171-1.063-0.003-2.153 0.482-3.115s1.259-1.747 2.215-2.243c0.956-0.496 2.044-0.678 3.109-0.52 1.087 0.161 2.093 0.667 2.869 1.444s1.283 1.783 1.444 2.869z"></path>
<path fill="none" stroke="#02897a" style="stroke: var(--color1, #02897a)" stroke-linejoin="round" stroke-linecap="round" stroke-miterlimit="4" stroke-width="2.56" d="M22.4 8.34h0.013"></path>
</symbol>
<symbol id="icon-Vector" viewBox="0 0 38 32">
<path fill="none" stroke="#02897a" style="stroke: var(--color2, #02897a)" stroke-linejoin="round" stroke-linecap="round" stroke-miterlimit="4" stroke-width="3.2" d="M36.8 1.616c-1.532 1.081-3.229 1.907-5.024 2.448-0.964-1.108-2.244-1.893-3.669-2.25s-2.924-0.267-4.296 0.257c-1.372 0.524-2.55 1.456-3.375 2.671s-1.256 2.654-1.237 4.122v1.6c-2.812 0.073-5.598-0.551-8.11-1.815s-4.673-3.131-6.29-5.433c0 0-6.4 14.4 8 20.8-3.295 2.237-7.221 3.358-11.2 3.2 14.4 8 32 0 32-18.4-0.001-0.446-0.044-0.89-0.128-1.328 1.633-1.61 2.785-3.644 3.328-5.872v0z"></path>
</symbol>
<symbol id="icon-star" viewBox="0 0 180 32">
<path fill="#f3cd03" style="fill: var(--color1, #f3cd03)" d="M30.814 11.093c-0.097-0.286-0.276-0.537-0.514-0.723s-0.526-0.297-0.827-0.321l-8.807-0.7-3.811-8.436c-0.121-0.272-0.319-0.502-0.568-0.664s-0.541-0.248-0.838-0.248c-0.298-0-0.589 0.086-0.839 0.248s-0.447 0.392-0.569 0.664l-3.811 8.438-8.807 0.7c-0.296 0.023-0.579 0.132-0.815 0.312s-0.415 0.424-0.516 0.703c-0.101 0.279-0.119 0.581-0.053 0.871s0.215 0.553 0.427 0.761l6.508 6.345-2.302 9.967c-0.070 0.302-0.048 0.617 0.064 0.906s0.308 0.537 0.563 0.713c0.255 0.176 0.557 0.271 0.866 0.274s0.613-0.088 0.87-0.261l8.412-5.608 8.412 5.608c0.263 0.175 0.573 0.265 0.889 0.258s0.622-0.11 0.877-0.296c0.255-0.186 0.447-0.446 0.55-0.744s0.113-0.621 0.027-0.925l-2.825-9.887 7.007-6.306c0.459-0.414 0.627-1.060 0.429-1.645z"></path>
<path fill="#f3cd03" style="fill: var(--color1, #f3cd03)" d="M67.891 11.093c-0.097-0.286-0.276-0.537-0.514-0.723s-0.526-0.297-0.827-0.321l-8.807-0.7-3.811-8.436c-0.121-0.272-0.319-0.502-0.568-0.664s-0.541-0.248-0.838-0.248c-0.298-0-0.589 0.086-0.839 0.248s-0.447 0.392-0.569 0.664l-3.811 8.438-8.807 0.7c-0.296 0.023-0.579 0.132-0.815 0.312s-0.415 0.424-0.516 0.703c-0.101 0.279-0.119 0.581-0.053 0.871s0.215 0.553 0.427 0.761l6.508 6.345-2.302 9.967c-0.070 0.302-0.047 0.617 0.064 0.906s0.308 0.537 0.563 0.713c0.255 0.176 0.557 0.271 0.866 0.274s0.613-0.088 0.87-0.261l8.411-5.608 8.412 5.608c0.263 0.175 0.573 0.265 0.889 0.258s0.622-0.11 0.877-0.296c0.255-0.186 0.447-0.446 0.551-0.744s0.112-0.621 0.027-0.925l-2.825-9.887 7.007-6.306c0.459-0.414 0.627-1.060 0.429-1.645z"></path>
<path fill="#f3cd03" style="fill: var(--color1, #f3cd03)" d="M104.962 11.093c-0.097-0.286-0.276-0.537-0.514-0.723s-0.526-0.297-0.827-0.321l-8.807-0.7-3.811-8.436c-0.121-0.272-0.319-0.502-0.568-0.664s-0.541-0.248-0.838-0.248-0.589 0.086-0.839 0.248c-0.25 0.162-0.448 0.392-0.569 0.664l-3.811 8.438-8.807 0.7c-0.296 0.023-0.579 0.132-0.815 0.312s-0.415 0.424-0.516 0.703c-0.101 0.279-0.119 0.581-0.053 0.871s0.215 0.553 0.427 0.761l6.508 6.345-2.302 9.967c-0.070 0.302-0.047 0.617 0.064 0.906s0.308 0.537 0.563 0.713c0.255 0.176 0.557 0.271 0.866 0.274s0.613-0.088 0.87-0.261l8.412-5.608 8.411 5.608c0.263 0.175 0.573 0.265 0.889 0.258s0.622-0.11 0.877-0.296c0.255-0.186 0.447-0.446 0.55-0.744s0.112-0.621 0.027-0.925l-2.826-9.887 7.007-6.306c0.459-0.414 0.627-1.060 0.429-1.645z"></path>
<path fill="#f3cd03" style="fill: var(--color1, #f3cd03)" d="M142.041 11.093c-0.097-0.286-0.276-0.537-0.514-0.723s-0.526-0.297-0.827-0.321l-8.807-0.7-3.811-8.436c-0.121-0.272-0.319-0.502-0.568-0.664s-0.541-0.248-0.838-0.248c-0.298-0-0.589 0.086-0.839 0.248s-0.448 0.392-0.569 0.664l-3.811 8.438-8.807 0.7c-0.296 0.023-0.579 0.132-0.815 0.312s-0.415 0.424-0.516 0.703-0.119 0.581-0.053 0.871c0.066 0.289 0.215 0.553 0.427 0.761l6.508 6.345-2.302 9.967c-0.070 0.302-0.047 0.617 0.064 0.906s0.308 0.537 0.563 0.713c0.255 0.176 0.557 0.271 0.866 0.274s0.613-0.088 0.87-0.261l8.412-5.608 8.411 5.608c0.263 0.175 0.573 0.265 0.889 0.258s0.622-0.11 0.877-0.296c0.255-0.186 0.447-0.446 0.551-0.744s0.112-0.621 0.027-0.925l-2.826-9.887 7.007-6.306c0.459-0.414 0.627-1.060 0.429-1.645z"></path>
<path fill="#f3cd03" style="fill: var(--color1, #f3cd03)" d="M155.281 19.039l-2.302 9.967c-0.071 0.302-0.050 0.618 0.061 0.908s0.307 0.539 0.562 0.715 0.557 0.272 0.868 0.274c0.31 0.002 0.614-0.090 0.871-0.263l8.411-5.608 8.411 5.608c0.264 0.175 0.574 0.265 0.889 0.258 0.317-0.007 0.623-0.11 0.877-0.297 0.256-0.186 0.448-0.446 0.551-0.744s0.113-0.621 0.027-0.925l-2.826-9.887 7.008-6.306c0.224-0.202 0.384-0.466 0.46-0.758 0.077-0.292 0.066-0.6-0.030-0.886-0.098-0.286-0.276-0.537-0.514-0.723-0.239-0.186-0.527-0.297-0.827-0.321l-8.808-0.701-3.81-8.436c-0.121-0.272-0.319-0.502-0.569-0.664s-0.541-0.248-0.839-0.248c-0.298 0-0.589 0.086-0.839 0.248s-0.447 0.393-0.569 0.664l-3.811 8.436-8.807 0.7c-0.296 0.023-0.579 0.132-0.815 0.312s-0.415 0.424-0.516 0.703-0.119 0.581-0.053 0.871c0.067 0.289 0.215 0.553 0.427 0.761l6.51 6.345zM159.688 12.356c0.276-0.022 0.54-0.117 0.767-0.277s0.405-0.376 0.519-0.629l2.779-6.15 2.779 6.15c0.113 0.252 0.293 0.47 0.519 0.629s0.491 0.255 0.767 0.277l6.137 0.487-5.054 4.548c-0.438 0.395-0.613 1.004-0.451 1.573l1.935 6.774-5.772-3.848c-0.253-0.17-0.551-0.261-0.857-0.261s-0.603 0.091-0.857 0.261l-6.031 4.021 1.622-7.023c0.059-0.258 0.052-0.527-0.023-0.782s-0.214-0.485-0.403-0.67l-4.693-4.576 6.318-0.504z"></path>
</symbol>
<symbol id="icon-logo" viewBox="0 0 34 32">
<path fill="#02bc6b" style="fill: var(--color1, #02bc6b)" d="M2.674 29.405c-1.47 0-2.674-1.203-2.674-2.674v-9.347h6.73v-0.010h4.045c1.043-0.027 1.925-0.936 1.925-2.005 0-1.096-0.909-2.005-2.005-2.005l-10.694 0.002v-2.675c0-1.47 1.203-2.674 2.674-2.674h8.021c2.032 0 3.77 0.722 5.187 2.166 1.444 1.417 2.166 3.155 2.166 5.187 0 2.005-0.695 3.743-2.112 5.16s-3.128 2.166-5.133 2.192h-5.454v4.010c0 1.471-1.203 2.674-2.674 2.674z"></path>
<path fill="#02897a" style="fill: var(--color2, #02897a)" d="M21.417 4.914c2.954 2.869 4.442 6.442 4.442 10.504 0 3.994-1.426 7.564-4.334 10.441l-4.129-3.885c1.809-1.79 2.696-3.945 2.696-6.557 0-2.632-0.914-4.783-2.766-6.582l4.091-3.922z"></path>
<path fill="#035b81" style="fill: var(--color3, #035b81)" d="M27.738 0c4.254 4.248 6.395 9.515 6.395 15.559 0 5.95-2.054 11.214-6.239 15.471l-3.985-3.894c3.117-3.171 4.644-7.017 4.644-11.577 0-4.606-1.579-8.449-4.764-11.629l3.948-3.931z"></path>
<path fill="#028e37" style="fill: var(--color4, #028e37)" d="M0 22.744h5.347v3.988c0 1.471-1.203 2.674-2.674 2.674s-2.674-1.203-2.674-2.674v-3.988z"></path>
</symbol>
</defs>
</svg>


